<?xml version="1.0" encoding="utf-8"?>
<!-- Generator: Adobe Illustrator 21.0.0, SVG Export Plug-In . SVG Version: 6.00 Build 0)  -->
<svg version="1.1" id="Layer_1" xmlns="http://www.w3.org/2000/svg" xmlns:xlink="http://www.w3.org/1999/xlink" x="0px" y="0px"
	 viewBox="0 0 113.33 112.13" style="enable-background:new 0 0 113.33 112.13;" xml:space="preserve">
<style type="text/css">
	.st0{fill:#FFFFFF;}
</style>
<g>
	<path class="st0" d="M22.14,41.28V25.64c0-2.35,1.9-4.25,4.25-4.25h15.64v-5.45H25.19c-4.7,0-8.5,3.81-8.5,8.5v16.84H22.14z"/>
	<path class="st0" d="M74.18,49.06l-2.59-1.91l-32.12,43.6H24.8c-1.47,0-2.67-1.19-2.67-2.67V70.85h-5.45v16.84
		c0,4.67,3.76,8.46,8.42,8.5h16.1c0.52,0,1.01-0.26,1.3-0.69L74.18,49.06z"/>
	<path class="st0" d="M91.5,70.85v15.64c0,2.35-1.9,4.25-4.25,4.25H71.6v5.45h16.84c4.7,0,8.5-3.81,8.5-8.5V70.85H91.5z"/>
	<path class="st0" d="M93.32,26.29l3.3-3.54c0.31-0.33,0.12-0.88-0.33-0.95l-4.67-0.73l0,0l-2.65-4.68c-0.22-0.38-0.77-0.38-0.99,0
		l-2.65,4.68l-4.67,0.73c-0.45,0.07-0.64,0.61-0.33,0.95l3.3,3.54l0,0l-0.54,5.12c-0.05,0.44,0.4,0.76,0.8,0.58l4.58-2.07l4.58,2.07
		c0.4,0.18,0.84-0.14,0.8-0.58L93.32,26.29z"/>
</g>
</svg>
